<mxfile host="app.diagrams.net" modified="2020-11-14T04:22:59.874Z" agent="5.0 (Macintosh; Intel Mac OS X 10_15_7) AppleWebKit/537.36 (KHTML, like Gecko) Chrome/86.0.4240.80 Safari/537.36" etag="EyX7f8w0U-OQrZ6gBbiu" version="13.7.1" type="github">
  <diagram id="ndOlfQx_AdST0ek4MqIJ" name="Page-1">
    <mxGraphModel dx="466" dy="771" grid="1" gridSize="10" guides="1" tooltips="1" connect="1" arrows="1" fold="1" page="1" pageScale="1" pageWidth="850" pageHeight="1100" math="0" shadow="0">
      <root>
        <mxCell id="0" />
        <mxCell id="1" parent="0" />
        <mxCell id="iwBKz4_eaj-sk2Z5MG3H-1" value="" style="ellipse;whiteSpace=wrap;html=1;aspect=fixed;" vertex="1" parent="1">
          <mxGeometry x="400" y="320" width="40" height="40" as="geometry" />
        </mxCell>
        <mxCell id="iwBKz4_eaj-sk2Z5MG3H-18" value="" style="edgeStyle=orthogonalEdgeStyle;rounded=0;orthogonalLoop=1;jettySize=auto;html=1;" edge="1" parent="1" source="iwBKz4_eaj-sk2Z5MG3H-2" target="iwBKz4_eaj-sk2Z5MG3H-4">
          <mxGeometry relative="1" as="geometry" />
        </mxCell>
        <mxCell id="iwBKz4_eaj-sk2Z5MG3H-2" value="depot 1" style="rounded=0;whiteSpace=wrap;html=1;" vertex="1" parent="1">
          <mxGeometry x="270" y="250" width="60" height="30" as="geometry" />
        </mxCell>
        <mxCell id="iwBKz4_eaj-sk2Z5MG3H-3" value="" style="ellipse;whiteSpace=wrap;html=1;aspect=fixed;" vertex="1" parent="1">
          <mxGeometry x="400" y="160" width="40" height="40" as="geometry" />
        </mxCell>
        <mxCell id="iwBKz4_eaj-sk2Z5MG3H-4" value="" style="ellipse;whiteSpace=wrap;html=1;aspect=fixed;" vertex="1" parent="1">
          <mxGeometry x="280" y="360" width="40" height="40" as="geometry" />
        </mxCell>
        <mxCell id="iwBKz4_eaj-sk2Z5MG3H-5" value="" style="ellipse;whiteSpace=wrap;html=1;aspect=fixed;" vertex="1" parent="1">
          <mxGeometry x="160" y="280" width="40" height="40" as="geometry" />
        </mxCell>
        <mxCell id="iwBKz4_eaj-sk2Z5MG3H-6" value="" style="ellipse;whiteSpace=wrap;html=1;aspect=fixed;" vertex="1" parent="1">
          <mxGeometry x="320" y="80" width="40" height="40" as="geometry" />
        </mxCell>
        <mxCell id="iwBKz4_eaj-sk2Z5MG3H-7" value="" style="ellipse;whiteSpace=wrap;html=1;aspect=fixed;" vertex="1" parent="1">
          <mxGeometry x="160" y="120" width="40" height="40" as="geometry" />
        </mxCell>
        <mxCell id="iwBKz4_eaj-sk2Z5MG3H-11" value="" style="endArrow=classic;html=1;exitX=0.5;exitY=0;exitDx=0;exitDy=0;entryX=0.5;entryY=1;entryDx=0;entryDy=0;" edge="1" parent="1" source="iwBKz4_eaj-sk2Z5MG3H-1" target="iwBKz4_eaj-sk2Z5MG3H-3">
          <mxGeometry width="50" height="50" relative="1" as="geometry">
            <mxPoint x="340" y="290" as="sourcePoint" />
            <mxPoint x="408" y="343" as="targetPoint" />
          </mxGeometry>
        </mxCell>
        <mxCell id="iwBKz4_eaj-sk2Z5MG3H-12" value="" style="endArrow=classic;html=1;exitX=-0.025;exitY=0.225;exitDx=0;exitDy=0;entryX=1;entryY=1;entryDx=0;entryDy=0;exitPerimeter=0;" edge="1" parent="1" source="iwBKz4_eaj-sk2Z5MG3H-3" target="iwBKz4_eaj-sk2Z5MG3H-6">
          <mxGeometry width="50" height="50" relative="1" as="geometry">
            <mxPoint x="319" y="260" as="sourcePoint" />
            <mxPoint x="319" y="140" as="targetPoint" />
          </mxGeometry>
        </mxCell>
        <mxCell id="iwBKz4_eaj-sk2Z5MG3H-13" value="" style="endArrow=classic;html=1;exitX=1;exitY=1;exitDx=0;exitDy=0;entryX=0;entryY=0;entryDx=0;entryDy=0;" edge="1" parent="1" source="iwBKz4_eaj-sk2Z5MG3H-7" target="iwBKz4_eaj-sk2Z5MG3H-2">
          <mxGeometry width="50" height="50" relative="1" as="geometry">
            <mxPoint x="409" y="179" as="sourcePoint" />
            <mxPoint x="364.14213562373106" y="124.14213562373106" as="targetPoint" />
          </mxGeometry>
        </mxCell>
        <mxCell id="iwBKz4_eaj-sk2Z5MG3H-15" value="" style="endArrow=classic;html=1;exitX=0;exitY=0.5;exitDx=0;exitDy=0;entryX=1;entryY=1;entryDx=0;entryDy=0;" edge="1" parent="1" source="iwBKz4_eaj-sk2Z5MG3H-4" target="iwBKz4_eaj-sk2Z5MG3H-5">
          <mxGeometry width="50" height="50" relative="1" as="geometry">
            <mxPoint x="204.14213562373106" y="164.14213562373106" as="sourcePoint" />
            <mxPoint x="301.54229069336475" y="371.87633720006716" as="targetPoint" />
          </mxGeometry>
        </mxCell>
        <mxCell id="iwBKz4_eaj-sk2Z5MG3H-16" value="" style="endArrow=classic;html=1;exitX=0.5;exitY=0;exitDx=0;exitDy=0;" edge="1" parent="1" source="iwBKz4_eaj-sk2Z5MG3H-5" target="iwBKz4_eaj-sk2Z5MG3H-7">
          <mxGeometry width="50" height="50" relative="1" as="geometry">
            <mxPoint x="290" y="390" as="sourcePoint" />
            <mxPoint x="204.14213562373106" y="324.14213562373106" as="targetPoint" />
          </mxGeometry>
        </mxCell>
        <mxCell id="iwBKz4_eaj-sk2Z5MG3H-17" value="depot 2" style="rounded=0;whiteSpace=wrap;html=1;" vertex="1" parent="1">
          <mxGeometry x="520" y="140" width="60" height="30" as="geometry" />
        </mxCell>
        <mxCell id="iwBKz4_eaj-sk2Z5MG3H-19" value="" style="endArrow=classic;html=1;exitX=0.5;exitY=1;exitDx=0;exitDy=0;entryX=1;entryY=0;entryDx=0;entryDy=0;" edge="1" parent="1" source="iwBKz4_eaj-sk2Z5MG3H-17" target="iwBKz4_eaj-sk2Z5MG3H-1">
          <mxGeometry width="50" height="50" relative="1" as="geometry">
            <mxPoint x="430" y="330" as="sourcePoint" />
            <mxPoint x="430" y="210" as="targetPoint" />
          </mxGeometry>
        </mxCell>
        <mxCell id="iwBKz4_eaj-sk2Z5MG3H-20" value="" style="endArrow=classic;html=1;exitX=1;exitY=0;exitDx=0;exitDy=0;entryX=0;entryY=0;entryDx=0;entryDy=0;" edge="1" parent="1" source="iwBKz4_eaj-sk2Z5MG3H-6" target="iwBKz4_eaj-sk2Z5MG3H-17">
          <mxGeometry width="50" height="50" relative="1" as="geometry">
            <mxPoint x="409" y="179" as="sourcePoint" />
            <mxPoint x="364.14213562373106" y="124.14213562373106" as="targetPoint" />
          </mxGeometry>
        </mxCell>
      </root>
    </mxGraphModel>
  </diagram>
</mxfile>
